<svg xmlns="http://www.w3.org/2000/svg" width="6.902" height="13.217" viewBox="0 0 6.902 13.217"><defs><style>.a{fill:#fff;fill-rule:evenodd;}</style></defs><path class="a" d="M32.91,46.373c.409-.013.819,0,1.229,0h.169V44.24c-.218-.022-.447-.053-.676-.065-.42-.018-.841-.039-1.262-.029a3.08,3.08,0,0,0-1.78.55,2.662,2.662,0,0,0-1.07,1.778,6.1,6.1,0,0,0-.074.913c-.012.479,0,.957,0,1.435V49H27.407v2.378h2.027v5.98h2.475V51.39h2.02c.1-.792.2-1.575.311-2.391h-.455c-.574,0-1.893,0-1.893,0s.006-1.18.02-1.69C31.933,46.607,32.349,46.393,32.91,46.373Z" transform="translate(-27.406 -44.143)"/></svg>