<?xml version="1.0" encoding="utf-8"?>
<!-- Generator: Adobe Illustrator 16.0.0, SVG Export Plug-In . SVG Version: 6.00 Build 0)  -->
<!DOCTYPE svg PUBLIC "-//W3C//DTD SVG 1.1//EN" "http://www.w3.org/Graphics/SVG/1.1/DTD/svg11.dtd">
<svg version="1.1"
	 id="Layer_1" xmlns:sodipodi="http://sodipodi.sourceforge.net/DTD/sodipodi-0.dtd" xmlns:dc="http://purl.org/dc/elements/1.1/" xmlns:cc="http://creativecommons.org/ns#" xmlns:svg="http://www.w3.org/2000/svg" xmlns:rdf="http://www.w3.org/1999/02/22-rdf-syntax-ns#" xmlns:inkscape="http://www.inkscape.org/namespaces/inkscape"
	 xmlns="http://www.w3.org/2000/svg" xmlns:xlink="http://www.w3.org/1999/xlink" x="0px" y="0px" width="842px" height="734px"
	 viewBox="-259.5 140.5 842 734" enable-background="new -259.5 140.5 842 734" xml:space="preserve">
<path d="M570.227,510.771c-0.439-7.059-3.227-13.768-7.92-19.058l-285.12-316.8c-11.716-13.089-31.825-14.203-44.914-2.487
	c-13.089,11.715-14.203,31.824-2.487,44.914c0.042,0.048,0.085,0.096,0.129,0.143l237.7,264.015H-207.5
	c-17.949,0-32.5,14.551-32.5,32.5s14.551,32.5,32.5,32.5h673.316L229.915,808.515c-11.795,13.018-10.803,33.133,2.215,44.928
	s33.133,10.803,44.928-2.215c0.043-0.047,0.086-0.095,0.129-0.143l285.12-316.8C568.033,527.85,570.893,519.36,570.227,510.771z"/>
</svg>
