<svg xmlns="http://www.w3.org/2000/svg" width="10.211" height="10.187" viewBox="0 0 10.211 10.187"><defs><style>.a{fill:#fff;}</style></defs><g transform="translate(-33.263 -42.192)"><path class="a" d="M33.431,45.574h2.118v6.805H33.431Zm1.06-3.382a1.227,1.227,0,1,1-1.228,1.227,1.228,1.228,0,0,1,1.228-1.227"/><path class="a" d="M59.381,65.577h2.028v.931h.029a2.223,2.223,0,0,1,2-1.1c2.142,0,2.537,1.41,2.537,3.242v3.732H63.864V69.074c0-.789-.016-1.8-1.1-1.8-1.1,0-1.269.859-1.269,1.747v3.366H59.381Z" transform="translate(-22.504 -20.003)"/></g></svg>