<svg xmlns="http://www.w3.org/2000/svg" width="26.561" height="23.146" viewBox="0 0 26.561 23.146"><defs><style>.a{fill:#fff;}</style></defs><g transform="translate(206.926 -155.964)"><g transform="translate(-212 145.164)"><g transform="translate(5.075 10.8)"><path class="a" d="M26.782,25.68H25.424V24.351a1.216,1.216,0,0,0-1.21-1.21A1.2,1.2,0,0,0,23,24.351V25.68H21.674a1.21,1.21,0,1,0,0,2.421H23v1.329a1.216,1.216,0,0,0,1.21,1.21,1.2,1.2,0,0,0,1.21-1.21V28.1h1.329a1.211,1.211,0,0,0,.03-2.421Zm2.834-12.695h0a6.79,6.79,0,0,0-9.979,0l-1.3,1.329-1.269-1.329a6.79,6.79,0,0,0-9.979,0,7.707,7.707,0,0,0,0,10.392l1.358,1.447h0l7.646,8.119.413.384a3,3,0,0,0,1.86.62,3.064,3.064,0,0,0,1.86-.62l1.358-1.358h0l.03-.03h0a1.16,1.16,0,0,0,.325-.827,1.212,1.212,0,0,0-2.037-.886h0l-.03.03-.03.03-.65.65-.354.384a.672.672,0,0,1-.5.236.733.733,0,0,1-.5-.236l-.354-.384h0l-5.727-6.082h0l-2.923-3.1a5.234,5.234,0,0,1,0-7.115,4.369,4.369,0,0,1,6.5,0l3.011,3.189,3.011-3.218a4.369,4.369,0,0,1,6.5,0,5.234,5.234,0,0,1,0,7.115l-.709.768h0l-.03.03h0a1.16,1.16,0,0,0-.325.827,1.211,1.211,0,0,0,2.1.827h0l.768-.8A7.739,7.739,0,0,0,29.616,12.985Z" transform="translate(-5.075 -10.8)"/></g></g></g></svg>