<svg xmlns="http://www.w3.org/2000/svg" width="11.982" height="9.751" viewBox="0 0 11.982 9.751"><defs><style>.a{fill:#fff;fill-rule:evenodd;}</style></defs><path class="a" d="M43.945,61.556a2.467,2.467,0,0,1-2.29-1.708,2.455,2.455,0,0,0,1.055-.032.205.205,0,0,0,.035-.016,2.456,2.456,0,0,1-1.6-1.129,2.38,2.38,0,0,1-.361-1.31,2.421,2.421,0,0,0,1.1.3,2.474,2.474,0,0,1-1.013-1.493,2.44,2.44,0,0,1,.263-1.785,7.037,7.037,0,0,0,5.079,2.572c-.015-.1-.029-.182-.039-.268a2.393,2.393,0,0,1,.358-1.61,2.365,2.365,0,0,1,1.67-1.112,2.4,2.4,0,0,1,2.156.686.126.126,0,0,0,.132.039,5,5,0,0,0,1.432-.551.189.189,0,0,1,.033-.016s.007,0,.016,0a2.526,2.526,0,0,1-1.055,1.341,4.727,4.727,0,0,0,1.371-.37l.01.011c-.094.124-.185.25-.283.37a4.8,4.8,0,0,1-.9.851.087.087,0,0,0-.041.078,6.611,6.611,0,0,1-.046,1.093,7.255,7.255,0,0,1-.634,2.192,7.135,7.135,0,0,1-1.331,1.942A6.57,6.57,0,0,1,45.68,63.51a7.262,7.262,0,0,1-1.371.164,6.962,6.962,0,0,1-3.941-1.057l-.057-.038a4.967,4.967,0,0,0,2.462-.34A4.822,4.822,0,0,0,43.945,61.556Z" transform="translate(-40.312 -53.926)"/></svg>