<svg xmlns="http://www.w3.org/2000/svg" width="40.586" height="31.854" viewBox="0 0 40.586 31.854"><defs><style>.a{fill:#fff;stroke:#fff;}</style></defs><g transform="translate(-25.692 -25.222)"><path class="a" d="M39.017,30.488H27.371V29.394a.666.666,0,0,0-.665-.665H20.551v-5.62H34.06a5.6,5.6,0,0,0,.668-11.162c.008-.155.03-.3.03-.461A8.75,8.75,0,0,0,18.471,7.028,8.3,8.3,0,0,0,6.7,11.975a5.611,5.611,0,1,0-.988,11.134h13.51v5.62H13.065a.666.666,0,0,0-.665.665v1.094H.761a.665.665,0,0,0,0,1.33H12.4V32.91a.665.665,0,0,0,.665.665H26.706a.666.666,0,0,0,.665-.665V31.818H39.017a.665.665,0,1,0,0-1.33Zm-37.591-13a4.289,4.289,0,0,1,5.534-4.1c.007,0,.013,0,.022,0A.155.155,0,0,1,7,13.4a.627.627,0,0,0,.146.017c.007,0,.012-.007.018-.007a.641.641,0,0,0,.381-.133.176.176,0,0,0,.02-.017.66.66,0,0,0,.226-.314c0-.018,0-.037,0-.057A7.039,7.039,0,0,1,18.368,8.473c.01.007.02,0,.03.012s.017.017.028.022a12.407,12.407,0,0,0,.223.058.576.576,0,0,0,.131,0,.561.561,0,0,0,.118-.017.748.748,0,0,0,.123-.055.6.6,0,0,0,.1-.058.629.629,0,0,0,.1-.108c.018-.023.043-.037.058-.063,0-.008,0-.018.01-.027s.017-.018.023-.03A7.438,7.438,0,0,1,33.36,12.447a.654.654,0,0,0,.422.7c.015.007.032.01.048.017a.731.731,0,0,0,.1.035.835.835,0,0,0,.09,0l0,0c.01,0,.02.007.03.007a4.284,4.284,0,0,1,0,8.568H5.711A4.282,4.282,0,0,1,1.426,17.492ZM26.04,32.247H13.73V30.061H26.039v2.186Z" transform="translate(26.096 23)"/></g></svg>