<svg xmlns="http://www.w3.org/2000/svg" width="43" height="35.833" viewBox="0 0 43 35.833"><defs><style>.a{fill:#fff;fill-rule:evenodd;}</style></defs><g transform="translate(62 -76.167)"><g transform="translate(-62 76.167)"><g transform="translate(0 0)"><g transform="translate(0 0)"><g transform="translate(0)"><path class="a" d="M37.585.793A.981.981,0,0,1,37.6.977V3.6h4.6a.825.825,0,0,1,.528.2A.837.837,0,0,1,43,4.4V28.6a7.236,7.236,0,0,1-7.236,7.235H7.233a7.415,7.415,0,0,1-5.254-2.245A7.372,7.372,0,0,1,0,28.6V.8A.817.817,0,0,1,.2.269.828.828,0,0,1,.8,0H36.784a.862.862,0,0,1,.6.282A.848.848,0,0,1,37.585.793ZM35.648,5.55h-.017v-3.6H1.955V28.6A5.441,5.441,0,0,0,3.4,32.243a5.423,5.423,0,0,0,3.837,1.636H35.764a5.282,5.282,0,0,0,5.281-5.285V5.55H37.6V28.944a.977.977,0,0,1-1.955,0Zm-18.28.343a1,1,0,0,1,1,1v9.4a1,1,0,0,1-1,1H6.888a1,1,0,0,1-1-1V6.9a1,1,0,0,1,1-1ZM7.84,15.342h8.576V7.848H7.84ZM30.753,7.848H21.3a.977.977,0,1,1,0-1.955h9.457a.977.977,0,1,1,0,1.955Zm0,4.725H21.3a.977.977,0,1,1,0-1.955h9.457a.977.977,0,1,1,0,1.955Zm0,4.725H21.3a.977.977,0,1,1,0-1.955h9.457a.977.977,0,1,1,0,1.955Zm0,4.725H6.862a.977.977,0,1,1,0-1.955H30.753a.977.977,0,1,1,0,1.955Zm0,4.724H6.862a.977.977,0,0,1,0-1.955H30.753a.977.977,0,1,1,0,1.955Z"/></g></g></g></g></g></svg>