<svg xmlns="http://www.w3.org/2000/svg" width="17.447" height="19.832" viewBox="0 0 17.447 19.832"><defs><style>.a{fill:#fff;}</style></defs><g transform="translate(0 0)"><path class="a" d="M36.306,32.86H25.938a2.058,2.058,0,0,1-1.859-1.182l9.67-1.146a2.578,2.578,0,0,0,2.243-2.058l1.146-5.7a.911.911,0,0,0-.171-.712.9.9,0,0,0-.662-.335l-12.647-.577a5.312,5.312,0,0,0-1.111-2.029L21.281,17.77A.891.891,0,1,0,20,19.009l1.232,1.275a3.5,3.5,0,0,1,.833,2.293v8.417h0a3.838,3.838,0,0,0,2.5,3.375,1.93,1.93,0,0,0-.249.94A2.008,2.008,0,1,0,28.2,34.6h3.126a2,2,0,1,0,3.881.712,1.866,1.866,0,0,0-.135-.712h1.239a.89.89,0,1,0,0-1.78ZM23.873,22.89l11.315.513-.94,4.7a.812.812,0,0,1-.712.641l-9.67,1.139Zm2.464,13.024a.58.58,0,1,1,0-1.161.577.577,0,0,1,.577.577.584.584,0,0,1-.577.584Zm6.793,0a.584.584,0,0,1-.577-.584.577.577,0,0,1,.577-.577.581.581,0,0,1,.028,1.161Z" transform="translate(-19.748 -17.498)"/></g></svg>