<svg xmlns="http://www.w3.org/2000/svg" width="41.053" height="28.152" viewBox="0 0 41.053 28.152"><defs><style>.a{fill:#fff;fill-rule:evenodd;}</style></defs><g transform="translate(-4 -64)"><g transform="translate(4 64)"><g transform="translate(0 0)"><path class="a" d="M37.515,29.96a5.473,5.473,0,0,0-5.3-4.118h0V24.475A5.478,5.478,0,0,0,26.738,19H16.132a1.368,1.368,0,0,0,0,2.737H26.738a2.741,2.741,0,0,1,2.735,2.739v1.367h-13A5.473,5.473,0,0,0,11,31.314v7.529a5.471,5.471,0,0,0,5.471,5.472H32.212a5.474,5.474,0,0,0,5.431-4.808l7.913,6.36c3.255,2.616,6.5,1.062,6.5-3.114V26.312c0-4.181-3.236-5.709-6.457-3.043l-8.08,6.691ZM16.471,28.579H32.212a2.734,2.734,0,0,1,2.735,2.735v7.529a2.737,2.737,0,0,1-2.735,2.735H16.471a2.734,2.734,0,0,1-2.735-2.735V31.314a2.737,2.737,0,0,1,2.735-2.735ZM38.981,32.3l8.36-6.923c1.434-1.188,1.974-.933,1.974.935V42.755c0,1.878-.581,2.157-2.044.98L39.019,37.1a2.925,2.925,0,0,1-.039-4.8Zm-21.828,3.8h4.8a1.366,1.366,0,0,1,1.363,1.372v.678a1.371,1.371,0,0,1-1.363,1.372h-4.8a1.366,1.366,0,0,1-1.363-1.372v-.678a1.371,1.371,0,0,1,1.363-1.372Z" transform="translate(-11 -19)"/></g></g></g></svg>