<svg xmlns="http://www.w3.org/2000/svg" width="34.785" height="34.786" viewBox="0 0 34.785 34.786"><defs><style>.a{fill:#fff;}</style></defs><g transform="translate(-26.639 -26.443)"><path class="a" d="M27.98,57.669a1.822,1.822,0,0,0,.526,3.437,7.547,7.547,0,0,0,1.252.089,11.3,11.3,0,0,0,6.185-1.963,17.392,17.392,0,1,0-5.422-4.444,6.126,6.126,0,0,1-2.541,2.881Zm5.466-24.444a15,15,0,1,1,3.022,23.562,1.252,1.252,0,0,0-.607-.17,1.163,1.163,0,0,0-.741.252,9.066,9.066,0,0,1-4.57,1.881,10.792,10.792,0,0,0,2.467-3.7,1.2,1.2,0,0,0-.185-1.244,15.029,15.029,0,0,1,.615-20.555Z" transform="translate(0)"/><path class="a" d="M49.585,50.78a1.215,1.215,0,0,0,1.215-1.2,1.2,1.2,0,0,0-.356-.844,1.23,1.23,0,0,0-.859-.356,1.215,1.215,0,0,0-1.185,1.2,1.23,1.23,0,0,0,.356.844A1.2,1.2,0,0,0,49.585,50.78Z" transform="translate(-5.642 -5.688)"/><path class="a" d="M55.585,50.78a1.23,1.23,0,0,0,1.215-1.2,1.2,1.2,0,0,0-2.4,0,1.193,1.193,0,0,0,.356.844A1.23,1.23,0,0,0,55.585,50.78Z" transform="translate(-7.198 -5.688)"/><path class="a" d="M43.585,50.78a1.2,1.2,0,0,0,.844-.356,1.23,1.23,0,0,0,.37-.844,1.2,1.2,0,0,0-2.4,0,1.23,1.23,0,0,0,.356.844,1.185,1.185,0,0,0,.83.356Z" transform="translate(-4.087 -5.688)"/></g></svg>