<svg xmlns="http://www.w3.org/2000/svg" width="34.686" height="40.614" viewBox="0 0 34.686 40.614"><defs><style>.a{fill:#fff;}</style></defs><path class="a" d="M99.68,140.862a100.493,100.493,0,0,0-1.107-11.449,4.62,4.62,0,0,0-1.29-2.43,4.863,4.863,0,0,0-2.459-1.253l-.036-.007a3.627,3.627,0,0,0-.732-.087,1.726,1.726,0,0,0-1.18.4.986.986,0,0,0-.36.712.953.953,0,0,0,.272.727,1,1,0,0,0,.78.34,1.233,1.233,0,0,0,.554-.131,1.945,1.945,0,0,1,.275.056l.009,0a2.678,2.678,0,0,1,2.153,2.093,102.138,102.138,0,0,1,1.1,11.092c0,.005,0,.01,0,.016.06.9-.115,1.451-.518,1.653l-.016.009-.316.19a1,1,0,0,1-.449.1,2.368,2.368,0,0,1-1.244-.474c-.038-.028-.135-.093-.474-.317A90.77,90.77,0,0,1,86.06,135.9a2.547,2.547,0,0,1-.717-2.922l0-.007c.03-.089.06-.164.082-.215a.951.951,0,0,0,.46-.475,1.046,1.046,0,0,0,.043-.751,1,1,0,0,0-.987-.724,1.24,1.24,0,0,0-.34.048l-.01,0a2,2,0,0,0-1.256,1.525,4.793,4.793,0,0,0,1.3,5.091l0,0a89.913,89.913,0,0,0,9.375,6.706,4.567,4.567,0,0,0,2.448.807,2.848,2.848,0,0,0,.357-.015,15.116,15.116,0,0,1-.447,9.69,14.959,14.959,0,0,1-6.509,7.513,15.071,15.071,0,0,1-7.5,2.007,15.229,15.229,0,0,1-7.471-1.962,15.036,15.036,0,0,1-5.638-5.6l0-.005a14.7,14.7,0,0,1,.154-15.531,4.219,4.219,0,0,0,1.395.205,4.935,4.935,0,0,0,2.316-.612l.007,0a4.726,4.726,0,0,0,2.156-2.8,4.43,4.43,0,0,0-.452-3.478,4.688,4.688,0,0,0-2.795-2.182,4.149,4.149,0,0,0-1.171-.166,4.577,4.577,0,0,0-2.319.642,4.688,4.688,0,0,0-2.182,2.795,4.46,4.46,0,0,0,.475,3.489,4.845,4.845,0,0,0,.812,1.018,17.318,17.318,0,0,0-2.642,8.694,17.018,17.018,0,0,0,2.283,8.954,17.194,17.194,0,0,0,14.917,8.609A17.163,17.163,0,0,0,98.23,155.283a17.2,17.2,0,0,0,.382-11.234A4.039,4.039,0,0,0,99.68,140.862ZM68.3,136a2.567,2.567,0,0,1,1.186-1.542,2.5,2.5,0,0,1,1.244-.358,2.607,2.607,0,0,1,2.2,1.247,2.478,2.478,0,0,1,.252,1.939,2.39,2.39,0,0,1-1.2,1.49l-.012.007a2.469,2.469,0,0,1-3.429-.944l-.009-.016A2.4,2.4,0,0,1,68.3,136Z" transform="translate(-65 -125.635)"/></svg>