<svg xmlns="http://www.w3.org/2000/svg" width="33.848" height="33.847" viewBox="0 0 33.848 33.847"><defs><style>.a{fill:#fff;fill-rule:evenodd;}</style></defs><g transform="translate(-21.999 136)"><path class="a" d="M11.246,20.223a10.183,10.183,0,0,0,9.268-10.088A10.2,10.2,0,0,0,10.257,0,10.2,10.2,0,0,0,0,10.135,10.187,10.187,0,0,0,9.516,20.244V26.62a.807.807,0,0,0,.865.733.807.807,0,0,0,.865-.733Zm7.538-10.088a8.528,8.528,0,0,1-17.054,0,8.528,8.528,0,0,1,17.054,0Z" transform="translate(22 -121.494) rotate(-45)"/></g></svg>