<svg xmlns="http://www.w3.org/2000/svg" width="49.928" height="52.391" viewBox="0 0 49.928 52.391"><defs><style>.a{fill:#fff;}</style></defs><g transform="translate(0)"><path class="a" d="M37.157,45.181a8.48,8.48,0,0,1-9.2,0,.883.883,0,1,0-1.025,1.438,10.225,10.225,0,0,0,11.254,0,.883.883,0,1,0-1.025-1.438Zm-4.6-28.018a3.368,3.368,0,0,0-1.221.227.883.883,0,1,0,.637,1.646,1.626,1.626,0,1,1-1.032,1.691.883.883,0,1,0-1.756.186,3.391,3.391,0,1,0,3.373-3.751ZM55.34,28.308a3.955,3.955,0,0,0-2.767-.57V18.93c0-6.663-11.646-13.43-20.017-13.43-7.53,0-20.017,6.505-20.017,13.43v8.808a3.956,3.956,0,0,0-2.766.571,5.058,5.058,0,0,0-2.181,4.341c0,4.263,2.376,7.206,5.984,7.538,2.748,10.047,10.441,17.7,18.978,17.7s16.231-7.657,18.979-17.7c3.609-.33,5.987-3.274,5.987-7.538A5.057,5.057,0,0,0,55.34,28.308ZM9.359,32.649A3.355,3.355,0,0,1,10.727,29.8a2.194,2.194,0,0,1,1.813-.261v1.329c-.022.461-.036.917-.036,1.382a30.129,30.129,0,0,0,.627,6.094C10.377,37.774,9.359,35.138,9.359,32.649ZM14.306,18.93c0-5.52,10.878-11.664,18.251-11.664S50.807,13.41,50.807,18.93v6.688a26.252,26.252,0,0,0-9.957-3.886,8.386,8.386,0,1,0-16.589-.011,26.432,26.432,0,0,0-9.955,3.855V18.93Zm24.871,1.624a6.62,6.62,0,1,1-6.62-6.619A6.628,6.628,0,0,1,39.177,20.554ZM32.555,56.125c-9.741,0-18.286-11.159-18.286-23.88,0-.451.012-.891.035-1.338,0-.008,0-.014,0-.022s0-.015,0-.022V27.741A24.128,24.128,0,0,1,24.69,23.435a8.372,8.372,0,0,0,15.728.011,23.944,23.944,0,0,1,10.388,4.346v3.072c0,.007,0,.013,0,.019s0,.013,0,.02c.02.448.035.889.035,1.342C50.843,44.966,42.3,56.125,32.555,56.125Zm19.428-17.8a30.1,30.1,0,0,0,.626-6.083c0-.467-.015-.924-.036-1.387V29.535a2.195,2.195,0,0,1,1.814.261,3.353,3.353,0,0,1,1.368,2.853C55.755,35.136,54.732,37.76,51.983,38.328Z" transform="translate(-7.593 -5.5)"/></g></svg>