<svg xmlns="http://www.w3.org/2000/svg" width="12.215" height="13.717" viewBox="0 0 12.215 13.717"><defs><style>.a{fill:#fff;}</style></defs><g transform="translate(489.5 -1101.215)"><g transform="translate(-489.5 1101.215)"><path class="a" d="M179.579,154.455A3.577,3.577,0,1,0,176,150.876,3.584,3.584,0,0,0,179.579,154.455Zm0-6.019a2.44,2.44,0,1,1-2.44,2.44A2.443,2.443,0,0,1,179.579,148.436Z" transform="translate(-173.477 -147.3)"/><path class="a" d="M95.581,379.047a.569.569,0,0,0-.924.664,4.8,4.8,0,0,1,.91,2.823c0,1.4-.6,1.811-1.175,2.035a11.125,11.125,0,0,1-3.543.325h-.5a11.205,11.205,0,0,1-3.543-.325c-.582-.223-1.175-.64-1.175-2.035a4.8,4.8,0,0,1,.987-2.925.569.569,0,0,0-.9-.689,5.934,5.934,0,0,0-1.219,3.615,3.6,3.6,0,0,0,.5,2,2.808,2.808,0,0,0,1.4,1.092,11.647,11.647,0,0,0,3.951.4h.747a10.742,10.742,0,0,0,3.7-.4,2.835,2.835,0,0,0,1.4-1.092,3.6,3.6,0,0,0,.5-2A6.006,6.006,0,0,0,95.581,379.047Z" transform="translate(-84.5 -372.317)"/></g></g></svg>