<svg xmlns="http://www.w3.org/2000/svg" width="39" height="32.118" viewBox="0 0 39 32.118"><defs><style>.a{fill:#fff;}</style></defs><g transform="translate(-3 -5)"><g transform="translate(3 5)"><path class="a" d="M38.559,9.588H32.824V8.441A3.441,3.441,0,0,0,29.382,5H15.618a3.441,3.441,0,0,0-3.441,3.441V9.588H6.441A3.3,3.3,0,0,0,3,12.731V19.2a3.166,3.166,0,0,0,2.294,2.936V33.608a3.441,3.441,0,0,0,3.441,3.51H36.265a3.441,3.441,0,0,0,3.441-3.441V22.206A3.166,3.166,0,0,0,42,19.269V12.731a3.3,3.3,0,0,0-3.441-3.143ZM14.471,8.441a1.147,1.147,0,0,1,1.147-1.147H29.382a1.147,1.147,0,0,1,1.147,1.147V9.588H14.471ZM36.265,34.824H8.735a1.147,1.147,0,0,1-1.147-1.147v-10.9l13.9,3.762a3.6,3.6,0,0,0,1.032.161h0a3.372,3.372,0,0,0,.986-.138l13.9-3.785v10.9A1.147,1.147,0,0,1,36.265,34.824ZM39.706,19.2a.9.9,0,0,1-.757.78L22.89,24.339a1.285,1.285,0,0,1-.757,0L6.074,20a.9.9,0,0,1-.78-.8V12.731c0-.459.528-.849,1.147-.849h5.735v2.294h2.294V11.882H30.529v2.294h2.294V11.882h5.735c.619,0,1.147.39,1.147.849ZM23.647,22.206A1.147,1.147,0,1,1,22.5,21.059,1.147,1.147,0,0,1,23.647,22.206Z" transform="translate(-3 -5)"/></g></g></svg>