<svg xmlns="http://www.w3.org/2000/svg" width="39.752" height="39.753" viewBox="0 0 39.752 39.753"><defs><style>.a{fill:#fff;}</style></defs><g transform="translate(22.998 -32)"><g transform="translate(-22.999 32)"><path class="a" d="M.67,69.7A.669.669,0,0,1,0,69.035C0,64.3,1.234,59.98,3.385,57.19c1.2-1.556,2.97-1.8,4.535-2.018a5.873,5.873,0,0,0,3.451-1.21c.659-.626.634-1.806.521-3.535a.669.669,0,1,1,1.335-.088c.113,1.715.228,3.488-.932,4.59A6.959,6.959,0,0,1,8.1,56.5c-1.5.206-2.8.385-3.657,1.507-1.975,2.562-3.106,6.581-3.106,11.029A.669.669,0,0,1,.67,69.7Z" transform="translate(-0.001 -29.951)"/><path class="a" d="M58.756,56.885a.656.656,0,0,1-.242-.046,5.366,5.366,0,0,0-.806-.22c-.386-.073-.8-.127-1.208-.181a7.026,7.026,0,0,1-4.245-1.58c-1.158-1.1-1.042-2.9-.929-4.631a.694.694,0,0,1,.711-.625.669.669,0,0,1,.625.711c-.113,1.755-.139,2.953.52,3.578a5.838,5.838,0,0,0,3.494,1.219c.438.058.874.116,1.3.2A6.53,6.53,0,0,1,59,55.59a.67.67,0,0,1-.242,1.294Z" transform="translate(-30.882 -29.883)"/><path class="a" d="M21.817,97.97H.67a.669.669,0,1,1,0-1.338H21.817a.669.669,0,1,1,0,1.338Z" transform="translate(-0.001 -58.218)"/><path class="a" d="M23.973,77.613a.671.671,0,0,1-.632-.448l-2.8-7.965-1.272.453a.669.669,0,0,1-.871-.805l1.5-5.513a.669.669,0,1,1,1.291.35l-1.162,4.277.7-.249a.669.669,0,0,1,.857.408l3.018,8.6a.671.671,0,0,1-.632.892Z" transform="translate(-11.074 -37.86)"/><path class="a" d="M51.24,77.613a.657.657,0,0,1-.224-.039.669.669,0,0,1-.407-.854l1-2.814a.669.669,0,0,1,1.262.447l-1,2.814A.671.671,0,0,1,51.24,77.613Zm3.675-12.5a.669.669,0,0,1-.646-.5l-.249-.93a.669.669,0,1,1,1.293-.347l.249.93a.671.671,0,0,1-.647.843Z" transform="translate(-30.467 -37.86)"/><path class="a" d="M29.193,65.619a.67.67,0,0,1-.458-.181l-4.379-4.106a.67.67,0,1,1,.916-.977l3.866,3.626,1.245-1.463-3.953-2.492a.67.67,0,0,1,.714-1.133l4.606,2.9a.67.67,0,0,1,.152,1l-2.2,2.587a.67.67,0,0,1-.472.235Z" transform="translate(-14.547 -35.42)"/><path class="a" d="M35.374,82.737a.685.685,0,0,1-.2-.032.67.67,0,0,1-.435-.841l2.282-7.172-1.6-2.293a.67.67,0,1,1,1.1-.768L38.3,74.2a.67.67,0,0,1,.089.587L36.011,82.27A.671.671,0,0,1,35.374,82.737Z" transform="translate(-20.909 -42.984)"/><path class="a" d="M43.725,82.737a.67.67,0,0,1-.639-.469l-2.36-7.488a.671.671,0,0,1,.088-.582l1.771-2.564a.67.67,0,1,1,1.1.761L42.1,74.691l2.261,7.176a.671.671,0,0,1-.639.871Z" transform="translate(-24.518 -42.984)"/><path class="a" d="M43.544,65.618H43.5a.671.671,0,0,1-.473-.237l-2.179-2.587a.669.669,0,0,1,.154-1l4.584-2.9a.669.669,0,0,1,.716,1.131l-3.936,2.493,1.23,1.461,3.864-3.624a.67.67,0,1,1,.916.977L44,65.437A.67.67,0,0,1,43.544,65.618Z" transform="translate(-24.519 -35.419)"/><path class="a" d="M29.621,34.024h-.055c-6.382-.051-8.446-8.621-8.446-12.763a7.037,7.037,0,0,1,.33-2.254.669.669,0,0,1,1.269.424,5.721,5.721,0,0,0-.261,1.83c0,3.561,1.792,11.382,7.119,11.424h.043a5.02,5.02,0,0,0,3.622-1.562c2.246-2.227,3.421-6.647,3.421-9.862A5.768,5.768,0,0,0,36.4,19.43a.669.669,0,1,1,1.269-.423A7.051,7.051,0,0,1,38,21.261c0,3.385-1.194,8.212-3.816,10.813A6.311,6.311,0,0,1,29.621,34.024Z" transform="translate(-12.724 -11.175)"/><path class="a" d="M41.507,14.661a.715.715,0,0,1-.086-.005,40.1,40.1,0,0,1-12.507-3.512.669.669,0,0,1,.589-1.2,38.753,38.753,0,0,0,12.088,3.386.67.67,0,0,1-.084,1.334Z" transform="translate(-17.195 -5.948)"/><path class="a" d="M48.83,8.713a.669.669,0,0,1-.609-.945,3.755,3.755,0,0,0-.065-3.758c-1.064-1.647-3.665-2.671-6.79-2.671a.67.67,0,0,1,0-1.339c3.629,0,6.588,1.228,7.914,3.284a5.021,5.021,0,0,1,.16,5.035A.669.669,0,0,1,48.83,8.713Z" transform="translate(-24.519 0)"/><path class="a" d="M21.734,8.713a.669.669,0,0,1-.61-.394,5.02,5.02,0,0,1,.159-5.032C22.611,1.229,25.578,0,29.22,0a.67.67,0,0,1,0,1.339c-3.138,0-5.748,1.024-6.812,2.673a3.75,3.75,0,0,0-.065,3.756.669.669,0,0,1-.609.945Z" transform="translate(-12.374)"/><path class="a" d="M22.531,16.725a.669.669,0,0,1-.03-1.338,8.693,8.693,0,0,0,5.493-1.926.67.67,0,1,1,.874,1.015,10.108,10.108,0,0,1-6.306,2.249Z" transform="translate(-13.172 -8.012)"/><path class="a" d="M97.3,70.11a.669.669,0,0,1-.669-.669V57.574a.669.669,0,1,1,1.338,0V69.441A.669.669,0,0,1,97.3,70.11Z" transform="translate(-58.219 -34.283)"/><path class="a" d="M88.464,90.273a2.85,2.85,0,0,1-2.847-2.848.669.669,0,0,1,1.338,0,1.52,1.52,0,0,0,3.041,0,.669.669,0,0,1,1.338,0A2.862,2.862,0,0,1,88.464,90.273Z" transform="translate(-51.582 -52.268)"/><path class="a" d="M79.614,72.945a.669.669,0,0,1-.669-.669,1.534,1.534,0,0,0-1.532-1.532,1.516,1.516,0,0,0-1.532,1.532.669.669,0,0,1-1.338,0,2.87,2.87,0,1,1,5.741,0A.669.669,0,0,1,79.614,72.945Z" transform="translate(-44.91 -41.815)"/><path class="a" d="M59,72.945a.669.669,0,0,1-.669-.669,2.873,2.873,0,0,1,2.87-2.87.669.669,0,0,1,0,1.338,1.533,1.533,0,0,0-1.531,1.532A.669.669,0,0,1,59,72.945Z" transform="translate(-35.145 -41.815)"/><path class="a" d="M82.034,93.575H75.613a.669.669,0,0,1,0-1.338h6.421a.669.669,0,0,1,0,1.338Z" transform="translate(-45.152 -55.57)"/><path class="a" d="M86.286,80.978a.669.669,0,0,1-.669-.669v-4.7a.669.669,0,1,1,1.338,0v4.7A.669.669,0,0,1,86.286,80.978Z" transform="translate(-51.582 -45.151)"/><path class="a" d="M70.983,70.744H64.539a.669.669,0,0,1,0-1.338h6.444a.669.669,0,0,1,0,1.338Z" transform="translate(-38.48 -41.815)"/><path class="a" d="M75.212,84.9a.669.669,0,0,1-.669-.669V75.612a.669.669,0,1,1,1.338,0v8.622A.669.669,0,0,1,75.212,84.9Z" transform="translate(-44.91 -45.151)"/><path class="a" d="M59,84.9a.669.669,0,0,1-.669-.669V75.612a.669.669,0,1,1,1.338,0v8.622A.669.669,0,0,1,59,84.9Z" transform="translate(-35.145 -45.151)"/><path class="a" d="M65.447,97.97H59a.669.669,0,1,1,0-1.338h6.443a.669.669,0,1,1,0,1.338Z" transform="translate(-35.145 -58.218)"/><path class="a" d="M81.091,63.213a.669.669,0,0,1-.669-.669V57.574a.669.669,0,1,1,1.338,0v4.969A.669.669,0,0,1,81.091,63.213Z" transform="translate(-48.452 -34.283)"/><path class="a" d="M87.535,58.244H81.091a.67.67,0,0,1,0-1.339h6.444a.67.67,0,0,1,0,1.339Z" transform="translate(-48.452 -34.283)"/><path class="a" d="M88.576,63.838H86.17a.669.669,0,1,1,0-1.338h2.405a.669.669,0,0,1,0,1.338Z" transform="translate(-51.512 -37.654)"/><path class="a" d="M90.4,70.117H89.2a.669.669,0,0,1,0-1.338h1.2a.669.669,0,1,1,0,1.338Z" transform="translate(-53.335 -41.437)"/><path class="a" d="M66.488,83.871H64.082a.669.669,0,1,1,0-1.338h2.405a.669.669,0,1,1,0,1.338Z" transform="translate(-38.205 -49.724)"/><path class="a" d="M68.311,90.093h-1.2a.669.669,0,1,1,0-1.338h1.2a.669.669,0,0,1,0,1.338Z" transform="translate(-40.028 -53.472)"/><path class="a" d="M66.488,77.593H64.082a.669.669,0,1,1,0-1.338h2.405a.669.669,0,1,1,0,1.338Z" transform="translate(-38.205 -45.941)"/><path class="a" d="M69.983,27.043a.67.67,0,0,1-.324-.084,15.21,15.21,0,0,1-5.934-5.909.669.669,0,1,1,1.169-.652A13.874,13.874,0,0,0,69.983,25.6,13.711,13.711,0,0,0,76.756,13.78c0-.272-.009-.55-.026-.824A5.252,5.252,0,0,1,73.269,10.1a37.789,37.789,0,0,0-6.583,0,4.776,4.776,0,0,1-.786,1.221.67.67,0,0,1-1-.89,3.48,3.48,0,0,0,.685-1.182.669.669,0,0,1,.571-.447c1.322-.122,2.61-.184,3.829-.184s2.465.061,3.805.184a.67.67,0,0,1,.564.427,3.905,3.905,0,0,0,3.1,2.5.67.67,0,0,1,.575.6c.047.467.071.968.071,1.45a15.051,15.051,0,0,1-7.789,13.179A.667.667,0,0,1,69.983,27.043Z" transform="translate(-38.342 -5.192)"/><path class="a" d="M73.491,27.5a4.016,4.016,0,1,1,0-8.033h.159a.67.67,0,0,1,0,1.339h-.159a2.677,2.677,0,1,0,2.666,2.689,2.578,2.578,0,0,0-.735-1.842.669.669,0,1,1,.947-.946A3.906,3.906,0,0,1,77.5,23.49,4.009,4.009,0,0,1,73.491,27.5Z" transform="translate(-41.85 -11.726)"/><path class="a" d="M77,23.995a.671.671,0,0,1-.479-.2l-.93-.953a.669.669,0,0,1,.958-.935l.41.42,3.019-3.647a.67.67,0,0,1,1.032.854l-3.494,4.22a.67.67,0,0,1-.489.242Z" transform="translate(-45.426 -11.107)"/></g></g></svg>