<svg xmlns="http://www.w3.org/2000/svg" width="45.041" height="47.887" viewBox="0 0 45.041 47.887"><defs><style>.a{fill:#fff;stroke:#fff;}</style></defs><g transform="translate(-13.686 -154.5)"><g transform="translate(14.195 155)"><g transform="translate(0 0)"><path class="a" d="M55.137,30.765c0-.015,0-.031,0-.046a0,0,0,0,0,0,0c0-.011-.005-.021-.007-.031a.558.558,0,0,0-.014-.063.622.622,0,0,0-.025-.071c-.005-.011-.01-.023-.015-.035s-.009-.013-.013-.021l0-.006a.564.564,0,0,0-.039-.06.586.586,0,0,0-.055-.058c-.012-.012-.021-.026-.034-.036L42.69,20.422a.573.573,0,0,0-.54-.1l-9.444,3V15.255a2.209,2.209,0,0,0-2.209-2.2H28.335a2.563,2.563,0,0,0-1.875-1.6A2.975,2.975,0,0,0,23.535,9h-.169a2.975,2.975,0,0,0-2.924,2.451,2.569,2.569,0,0,0-1.3.705,2.536,2.536,0,0,0-.574.894H16.4a2.21,2.21,0,0,0-2.21,2.2v16.5a2.212,2.212,0,0,0,2.21,2.209h6.647L22.882,45.4a.57.57,0,0,0,.212.453l12.233,9.908.01.006.01.01a.605.605,0,0,0,.1.053c.018.008.034.021.053.027a.573.573,0,0,0,.186.033.582.582,0,0,0,.173-.027l18.6-5.9a.573.573,0,0,0,.4-.537l.281-18.637C55.139,30.78,55.137,30.773,55.137,30.765ZM42.209,21.506l11.173,9.048-6.469,2.052a.563.563,0,0,0-.067-.081L35.762,23.55Zm7.163,11.561v1.641l-8.518,2.7V35.768ZM19.561,13.721a1.4,1.4,0,0,1,.39-.756,1.43,1.43,0,0,1,1.018-.423.571.571,0,0,0,.572-.572,1.828,1.828,0,0,1,1.826-1.826h.169a1.828,1.828,0,0,1,1.826,1.826.571.571,0,0,0,.572.572,1.429,1.429,0,0,1,1.017.423,1.452,1.452,0,0,1,.4.779c0,.006,0,.013,0,.018a1.078,1.078,0,0,1,.019.242,1.438,1.438,0,0,1-.02.2c0,.026-.005.053-.01.078a1.437,1.437,0,0,1-.062.2c-.009.023-.014.048-.024.07a1.468,1.468,0,0,1-.082.15c-.019.031-.034.065-.055.095s-.049.059-.073.089a1.577,1.577,0,0,1-.107.124c-.013.013-.029.023-.043.035a1.535,1.535,0,0,1-.172.137l-.008,0a1.45,1.45,0,0,1-.234.124l-.01,0a1.473,1.473,0,0,1-.254.078,1.446,1.446,0,0,1-.284.029H20.968a1.436,1.436,0,0,1-1.436-1.435A1.169,1.169,0,0,1,19.561,13.721Zm3.961,12.517c-.011,0-.023.005-.034.01s-.021.015-.031.021a.515.515,0,0,0-.049.027l-.03.024a.7.7,0,0,0-.09.089l-.025.031c-.01.014-.018.029-.026.045a.537.537,0,0,0-.032.066c-.005.013-.013.025-.017.038s-.006.027-.01.041-.008.019-.01.03a.486.486,0,0,0,0,.05c0,.016-.007.031-.007.047l-.09,6.059H16.4a1.067,1.067,0,0,1-1.066-1.066v-16.5A1.064,1.064,0,0,1,16.4,14.194H18.4c0,.058.021.113.029.17s.019.13.033.193a2.509,2.509,0,0,0,.085.28c.021.058.038.117.062.174a2.563,2.563,0,0,0,.15.282c.027.045.049.093.078.136a2.57,2.57,0,0,0,2.133,1.132h4.965a2.644,2.644,0,0,0,.516-.053c.013,0,.023-.007.035-.01a2.555,2.555,0,0,0,1.59-1.075h0a2.551,2.551,0,0,0,.226-.415c.011-.026.019-.052.03-.078a2.512,2.512,0,0,0,.116-.371c.013-.055.02-.111.029-.167s.029-.129.034-.2H30.5a1.064,1.064,0,0,1,1.066,1.061v8.426L23.558,26.22C23.545,26.224,23.535,26.232,23.522,26.237ZM35.133,54.13l-11.1-8.993L24.2,33.4s0,0,0-.006l.078-5.288,0-.158L26,29.336v6.417a.572.572,0,0,0,1.144,0v-5.49l8.256,6.686ZM32.389,33.043l-7.474-6.054,6.955-2.205,2.586-.819,11.175,9.049-9.542,3.026ZM53.72,49,36.273,54.53,36.537,37.1l3.174-1.007v2.1a.573.573,0,0,0,.572.572.582.582,0,0,0,.173-.027l9.662-3.065a.572.572,0,0,0,.4-.545V32.665l3.468-1.1Z" transform="translate(-14.195 -9)"/><path class="a" d="M28.3,24.966l-3.816,3.27-.19-.222a2.112,2.112,0,0,0-3.206,2.749l1.564,1.826a2.113,2.113,0,0,0,2.977.229l5.419-4.645A2.112,2.112,0,0,0,28.3,24.966Zm2,2.339L24.89,31.95a.972.972,0,0,1-1.365-.105L21.96,30.02a.969.969,0,1,1,1.47-1.261l.562.656a.571.571,0,0,0,.806.062l4.25-3.643a.969.969,0,0,1,1.26,1.471Z" transform="translate(-16.931 -15.619)"/><path class="a" d="M35.4,59.95a.571.571,0,0,0-.572.572v.388a.572.572,0,1,0,1.144,0v-.388A.571.571,0,0,0,35.4,59.95Z" transform="translate(-23.032 -30.817)"/></g><path class="a" d="M70.683,18.881H66.517a.572.572,0,0,1-.5-.858l2.084-3.609a.6.6,0,0,1,.99,0l2.084,3.609a.572.572,0,0,1-.5.858Zm-3.176-1.144h2.185L68.6,15.845Z" transform="translate(-36.355 -11.205)"/><path class="a" d="M18.934,66.021H14.768a.572.572,0,0,1-.5-.858l2.084-3.609a.6.6,0,0,1,.99,0l2.084,3.609a.572.572,0,0,1-.5.858Zm-3.176-1.144h2.185l-1.093-1.893Z" transform="translate(-14.195 -31.391)"/><path class="a" d="M84.72,32.863a2.594,2.594,0,1,1,2.594-2.594A2.6,2.6,0,0,1,84.72,32.863Zm0-4.045a1.451,1.451,0,1,0,1.451,1.451A1.453,1.453,0,0,0,84.72,28.819Z" transform="translate(-43.283 -16.997)"/></g></g></svg>