<svg xmlns="http://www.w3.org/2000/svg" width="10.211" height="10.205" viewBox="0 0 10.211 10.205"><defs><style>.a{fill:#fff;}</style></defs><g transform="translate(-32.923 -42.632)"><path class="a" d="M43.051,45.192a2.709,2.709,0,0,0-.825-1.742,2.828,2.828,0,0,0-1.873-.76,36.8,36.8,0,0,0-5.05.056,2.576,2.576,0,0,0-2.209,1.982,28.484,28.484,0,0,0-.053,5.732,2.584,2.584,0,0,0,2.051,2.227,30.368,30.368,0,0,0,5.651.037,2.588,2.588,0,0,0,2.237-2.042A32.048,32.048,0,0,0,43.051,45.192Zm-.94,5.1a1.729,1.729,0,0,1-1.625,1.542,30.463,30.463,0,0,1-5.266-.074,1.671,1.671,0,0,1-1.269-1.442,34.141,34.141,0,0,1,0-5.152,1.725,1.725,0,0,1,1.617-1.536,35.9,35.9,0,0,1,5.027.021,1.727,1.727,0,0,1,1.539,1.627A36.519,36.519,0,0,1,42.111,50.294Zm-4.081-5.178a2.618,2.618,0,1,0,2.618,2.621A2.616,2.616,0,0,0,38.029,45.116Zm-.018,4.31a1.693,1.693,0,1,1,1.712-1.687A1.691,1.691,0,0,1,38.011,49.426Zm3.35-4.408a.613.613,0,1,1-.606-.616A.608.608,0,0,1,41.361,45.018Z"/></g></svg>