<svg xmlns="http://www.w3.org/2000/svg" width="26" height="34" viewBox="0 0 26 34"><defs><style>.a{fill:#97bf0d;}</style></defs><g transform="translate(-5 -1)"><path class="a" d="M18,1A13.012,13.012,0,0,0,5,14c0,6.93,11.76,20.11,12.26,20.67a.995.995,0,0,0,1.48,0C19.24,34.11,31,20.93,31,14A13.012,13.012,0,0,0,18,1Zm0,31.48C15.47,29.52,7,19.25,7,14a11,11,0,0,1,22,0C29,19.25,20.53,29.52,18,32.48Z"/><path class="a" d="M18.857,9a5.857,5.857,0,1,0,5.857,5.857A5.859,5.859,0,0,0,18.857,9Zm0,9.372a3.514,3.514,0,1,1,3.514-3.514A3.525,3.525,0,0,1,18.857,18.372Z" transform="translate(-0.857 -0.857)"/></g></svg>