<svg xmlns="http://www.w3.org/2000/svg" width="30.357" height="30.357" viewBox="0 0 30.357 30.357"><defs><style>.a{fill:#97bf0d;}</style></defs><g transform="translate(0 0)"><g transform="translate(0 0)"><path class="a" d="M43.911,22.446a15.178,15.178,0,1,0,4.446,10.733A15.179,15.179,0,0,0,43.911,22.446ZM28.72,20.694l.171.342a4.781,4.781,0,0,0,4.288,2.656h.949a2.846,2.846,0,1,1,0,5.692h-3.32a3.3,3.3,0,0,0-2.561,1.233c-.474.455-.7.664-1.233.664H23.218a2.865,2.865,0,0,1-2.827-1.689A13.281,13.281,0,0,1,28.72,20.694Zm2.561,25.614A13.281,13.281,0,0,1,19.9,33.179a10.387,10.387,0,0,1,0-1.1,5.067,5.067,0,0,0,3.339,1.1h3.795a3.3,3.3,0,0,0,2.561-1.233c.474-.455.7-.664,1.233-.664h3.3a4.743,4.743,0,1,0,0-9.487h-.949A2.865,2.865,0,0,1,30.6,20.2a12.975,12.975,0,0,1,2.58-.3A13.281,13.281,0,0,1,46.46,33.179H43.614a3.3,3.3,0,0,0-2.561,1.233c-.474.456-.7.664-1.233.664H36.025a2.846,2.846,0,0,0,0,5.692.949.949,0,0,1,0,1.9A4.269,4.269,0,0,0,31.281,46.308Zm1.9.152c.19-1.176,1.176-1.9,2.77-1.9a2.846,2.846,0,0,0,0-5.692.949.949,0,1,1,0-1.9h3.795A3.3,3.3,0,0,0,42.3,35.74c.474-.456.7-.664,1.233-.664h2.694A13.281,13.281,0,0,1,33.179,46.46Z" transform="translate(-18 -18)"/></g></g></svg>