<svg xmlns="http://www.w3.org/2000/svg" width="38.32" height="42.646" viewBox="0 0 38.32 42.646"><defs><style>.a{fill:#fff;}</style></defs><g transform="translate(-6.11 -1.313)"><path class="a" d="M42.34,45.344l-.044-.031a3.637,3.637,0,0,0-4.108.707l-7.347,7.208a3.676,3.676,0,0,0-.493-.873,3.632,3.632,0,0,0-2.894-1.41H13.662A6.985,6.985,0,0,0,9,52.73L6.472,55A1.091,1.091,0,1,0,7.931,56.62l2.523-2.266a4.8,4.8,0,0,1,3.209-1.231H27.453a1.476,1.476,0,1,1,0,2.951H18.072a1.091,1.091,0,1,0,0,2.183h9.382a3.658,3.658,0,0,0,3.056-1.637l9.19-9.045a1.471,1.471,0,0,1,1.659-.284l.061.031a1.423,1.423,0,0,1,.41,2.3L30.387,61.06a7.421,7.421,0,0,1-5.265,2.183H17.007a4.523,4.523,0,0,0-3.632,1.82L12.1,66.809a1.091,1.091,0,1,0,1.746,1.31l1.275-1.746a2.331,2.331,0,0,1,1.873-.947h8.129a9.569,9.569,0,0,0,6.81-2.82L43.375,51.163a3.606,3.606,0,0,0-1.035-5.819Z" transform="translate(0 -24.596)"/><path class="a" d="M42.981,29.761a1.091,1.091,0,0,0,1.091-1.091v-.76a3.816,3.816,0,0,0,3.056-3.741c0-1.1-.506-3.056-3.881-3.846-2.183-.5-2.183-1.414-2.183-1.716a1.763,1.763,0,0,1,1.943-1.689A1.938,1.938,0,0,1,44.8,18.109a1.091,1.091,0,1,0,1.978-.847,4.112,4.112,0,0,0-2.707-2.379V14.1a1.091,1.091,0,0,0-2.183,0v.76A3.816,3.816,0,0,0,38.86,18.6c0,1.1.5,3.056,3.881,3.846,2.183.5,2.183,1.414,2.183,1.716a1.763,1.763,0,0,1-1.943,1.689,1.938,1.938,0,0,1-1.794-1.192,1.091,1.091,0,1,0-2.013.843,4.112,4.112,0,0,0,2.715,2.379v.781a1.091,1.091,0,0,0,1.091,1.1Z" transform="translate(-18.453 -6.59)"/><path class="a" d="M16.733,14.535a13.682,13.682,0,0,0,1.93,7.4,10.185,10.185,0,0,0,.7,1.065c.118.166.244.327.371.485l.284.345a1.091,1.091,0,1,0,1.659-1.419l-.24-.275q-.162-.2-.31-.406c-.21-.288-.41-.589-.594-.873a11.543,11.543,0,1,1,21.391-7.037,11.725,11.725,0,0,1,.052,1.441,9.012,9.012,0,0,1-.074,1.03q-.044.38-.114.751c-.061.341-.14.681-.231,1.013a1.092,1.092,0,0,0,2.1.585c.109-.393.205-.8.279-1.209.052-.3.1-.594.131-.873.048-.4.074-.816.087-1.222a13.883,13.883,0,0,0-.061-1.711,13.725,13.725,0,0,0-27.368.917Z" transform="translate(-5.983 0)"/></g></svg>