<svg xmlns="http://www.w3.org/2000/svg" width="36.918" height="36.206" viewBox="0 0 36.918 36.206"><defs><style>.a{fill:#fff;}</style></defs><g transform="translate(-88.531 -211.48)"><path class="a" d="M123.158,214.571H117.6v-1.987a1.1,1.1,0,0,0-2.207,0v1.987H98.584v-1.987a1.1,1.1,0,1,0-2.207,0v1.987H90.823a2.3,2.3,0,0,0-2.292,2.292v28.53a2.3,2.3,0,0,0,2.292,2.292h32.334a2.3,2.3,0,0,0,2.292-2.292v-28.53A2.3,2.3,0,0,0,123.158,214.571Zm-32.419,9.1h32.5v21.721a.092.092,0,0,1-.085.085H90.823a.092.092,0,0,1-.085-.085Zm6.742-3.8a1.1,1.1,0,0,0,1.1-1.1v-1.987H115.4v1.987a1.1,1.1,0,0,0,2.207,0v-1.987h5.554a.092.092,0,0,1,.085.085v4.6h-32.5v-4.6a.092.092,0,0,1,.085-.085h5.554v1.987A1.1,1.1,0,0,0,97.48,219.869Z"/><path class="a" d="M262.614,467.2l-.241,4.436a1.1,1.1,0,0,0,1.1,1.163h0a1.1,1.1,0,0,0,.4-.074l4.144-1.6,4.144,1.6a1.1,1.1,0,0,0,1.5-1.09l-.241-4.435,2.8-3.447a1.1,1.1,0,0,0-.574-1.763l-4.293-1.141-2.411-3.73a1.1,1.1,0,0,0-1.854,0l-2.411,3.73-4.292,1.14a1.1,1.1,0,0,0-.573,1.763Zm8.575-.306.172,3.156-2.949-1.139a1.109,1.109,0,0,0-.795,0l-2.949,1.139.172-3.156a1.105,1.105,0,0,0-.246-.756l-1.995-2.453,3.055-.812a1.1,1.1,0,0,0,.644-.467l1.716-2.654,1.716,2.654a1.1,1.1,0,0,0,.643.468l3.055.812-1.994,2.453A1.1,1.1,0,0,0,271.189,466.891Z" transform="translate(-160.764 -230.415)"/></g></svg>