<svg xmlns="http://www.w3.org/2000/svg" width="55.502" height="50.39" viewBox="0 0 55.502 50.39"><defs><style>.a{fill:#fff;}</style></defs><g transform="translate(0)"><g transform="translate(0 0)"><path class="a" d="M79.851,36.088a3.414,3.414,0,0,0-3.768-3,3.473,3.473,0,0,0-3.12,3.767l.883,9.419L69.961,51.8h-.177a.118.118,0,0,1,0-.118l1.354-4.3a3.414,3.414,0,0,0-1.589-4.3h0a3.414,3.414,0,0,0-4.474,1.3l-5.534,9.065a3.944,3.944,0,0,0-.648,2.3L58.6,68.111h2.355l.294-12.421v-.059a1.648,1.648,0,0,1,.294-1l5.475-9.124a1.06,1.06,0,0,1,1.354-.412h0a1.06,1.06,0,0,1,.471,1.354v.118l-1.354,4.3A2.472,2.472,0,0,0,69.667,54.1h0a2.472,2.472,0,0,0,2.178-1.06l4.18-5.887a1.177,1.177,0,0,0,.235-.765l-.942-9.772a1.118,1.118,0,0,1,1.06-1.177,1.06,1.06,0,0,1,1.118.942l1.354,12.48a1.589,1.589,0,0,1-.353,1.177L69.549,61.577a1.177,1.177,0,0,0-.235.648l-.294,5.828,2.355.118L71.61,62.7l8.83-11.3a3.944,3.944,0,0,0,.824-2.884Z" transform="translate(-25.786 -17.839)"/><path class="a" d="M8.063,33.09H8a3.414,3.414,0,0,0-3.709,3L2.883,48.571a3.944,3.944,0,0,0,.824,2.884l8.83,11.3.235,5.475,2.355-.118-.294-5.828a1.177,1.177,0,0,0-.235-.648L5.591,49.984a1.589,1.589,0,0,1-.353-1.177L6.65,36.327a1.06,1.06,0,0,1,1.118-.942h.059a1.118,1.118,0,0,1,1,1.177l-.942,9.89a1.177,1.177,0,0,0,.235.765L12.3,53.1a2.472,2.472,0,0,0,2.178,1.06h0a2.472,2.472,0,0,0,2.178-3.238l-1.354-4.3v-.118a1.06,1.06,0,0,1,.471-1.354h0a1.06,1.06,0,0,1,1.354.412L22.6,54.752a1.589,1.589,0,0,1,.235.942s0,.059,0,.059l.294,12.421h2.355l-.294-12.362a3.885,3.885,0,0,0-.589-2.237L19.13,44.333a3.414,3.414,0,0,0-4.415-1.3h0a3.414,3.414,0,0,0-1.589,4.3l1.354,4.3a.118.118,0,0,1,0,.118H14.3l-3.885-5.533L11.3,36.8A3.473,3.473,0,0,0,8.063,33.09Z" transform="translate(-2.858 -17.843)"/><path class="a" d="M50.649,21.686H46.941V17.977a1.177,1.177,0,0,0-2.355,0v3.709H40.877a1.177,1.177,0,1,0,0,2.355h3.709v3.709a1.177,1.177,0,0,0,2.355,0V24.041h3.709a1.177,1.177,0,1,0,0-2.355Z" transform="translate(-18.012 -11.149)"/><path class="a" d="M53.529,18.914A11.715,11.715,0,1,0,41.815,30.629,11.715,11.715,0,0,0,53.529,18.914Zm-11.715,9.36a9.36,9.36,0,1,1,9.36-9.36A9.36,9.36,0,0,1,41.815,28.274Z" transform="translate(-14.063 -7.2)"/></g></g></svg>