<svg xmlns="http://www.w3.org/2000/svg" width="52" height="38.253" viewBox="0 0 52 38.253"><defs><style>.a{fill:#fff;}</style></defs><g transform="translate(25 -68.295)"><path class="a" d="M52.062,47.863V31.625h-.016L57,29.332,31,17.3,5,29.332l10.619,4.916v8.7c0,4.2,6.757,7.486,15.381,7.486s15.381-3.288,15.381-7.486v-8.7l3.591-1.663V47.863a3.915,3.915,0,1,0,2.09,0ZM31,19.6l21.025,9.734L31,39.066,9.975,29.332Zm13.291,23.35c0,2.552-5.459,5.4-13.291,5.4s-13.291-2.844-13.291-5.4V35.215L31,41.369l13.291-6.153Zm6.726,10.509a1.825,1.825,0,1,1,1.826-1.825A1.827,1.827,0,0,1,51.017,53.458Z" transform="translate(-30 51)"/></g></svg>