<svg xmlns="http://www.w3.org/2000/svg" width="38.631" height="38.631" viewBox="0 0 38.631 38.631"><defs><style>.a{fill:#fff;}</style></defs><g transform="translate(45 -28.369)"><g transform="translate(-45 28.369)"><path class="a" d="M36.217,0h-1.61a.8.8,0,0,0,0,1.61h1.61a.8.8,0,0,1,.8.8V29.778a.8.8,0,0,1-.8.8H2.414a.8.8,0,0,1-.8-.8V27.364h33a.8.8,0,1,0,0-1.61H32.193V2.414A2.414,2.414,0,0,0,29.778,0h-16.1a.8.8,0,0,0-.571.233L6.672,6.672a.8.8,0,0,0-.233.571V25.754H1.61V2.414a.8.8,0,0,1,.8-.8H9.658a.8.8,0,0,0,0-1.61H2.414A2.414,2.414,0,0,0,0,2.414V29.778a2.414,2.414,0,0,0,2.414,2.414h9.658v4.829h-1.61a.8.8,0,0,0,0,1.61H28.169a.8.8,0,0,0,0-1.61h-1.61V32.193h9.658a2.414,2.414,0,0,0,2.414-2.414V2.414A2.414,2.414,0,0,0,36.217,0ZM12.877,2.744V5.634a.8.8,0,0,1-.8.8H9.183Zm-4.829,5.3h4.024a2.414,2.414,0,0,0,2.414-2.414V1.61H29.778a.8.8,0,0,1,.8.8v23.34H8.048Zm16.9,28.973H13.682V32.193H24.949Z" transform="translate(0 0)"/><path class="a" d="M17.634,12H12.8a.8.8,0,0,0-.8.8v4.829a.8.8,0,0,0,.8.8h4.829a.8.8,0,0,0,.8-.8V12.8A.8.8,0,0,0,17.634,12Zm-.8,4.829H13.61V13.61h3.219Z" transform="translate(-2.342 -2.342)"/><path class="a" d="M17.634,22H12.8a.8.8,0,0,0-.8.8v4.829a.8.8,0,0,0,.8.8h4.829a.8.8,0,0,0,.8-.8V22.8A.8.8,0,0,0,17.634,22Zm-.8,4.829H13.61V23.61h3.219Z" transform="translate(-2.342 -4.294)"/><path class="a" d="M32.463,13H22.8a.8.8,0,0,0,0,1.61h9.658a.8.8,0,0,0,0-1.61Z" transform="translate(-4.294 -2.537)"/><path class="a" d="M22.8,18.61h6.439a.8.8,0,1,0,0-1.61H22.8a.8.8,0,0,0,0,1.61Z" transform="translate(-4.294 -3.318)"/><path class="a" d="M32.463,23H22.8a.8.8,0,0,0,0,1.61h9.658a.8.8,0,0,0,0-1.61Z" transform="translate(-4.294 -4.489)"/><path class="a" d="M29.243,27H22.8a.8.8,0,0,0,0,1.61h6.439a.8.8,0,1,0,0-1.61Z" transform="translate(-4.294 -5.27)"/></g></g></svg>