<svg xmlns="http://www.w3.org/2000/svg" width="48.932" height="42.155" viewBox="0 0 48.932 42.155"><defs><style>.a{fill:#fff;}</style></defs><g transform="translate(-0.001)"><path class="a" d="M17.69,0H10.915a.752.752,0,0,0-.753.753V30.7L.515,33.914A.751.751,0,0,0,0,34.628v3.387a.753.753,0,0,0,1.506,0V35.17l8.657-2.886V41.4a.753.753,0,0,0,1.506,0V32.284l8.657,2.886v2.845a.753.753,0,0,0,1.506,0V34.628a.751.751,0,0,0-.515-.714L11.668,30.7V1.506h5.269V3.387H14.3a.752.752,0,0,0-.753.753v6.775a4.144,4.144,0,0,0,3.388,4.068V17.69a4.145,4.145,0,0,0,4.14,4.14.753.753,0,1,0,0-1.506,2.638,2.638,0,0,1-2.635-2.635V14.983a4.144,4.144,0,0,0,3.388-4.068V4.14a.752.752,0,0,0-.753-.753H18.443V.753A.752.752,0,0,0,17.69,0Zm2.635,4.893v6.022a2.635,2.635,0,0,1-5.269,0V4.893h5.269Z"/><path class="a" d="M55.966,47.718a.752.752,0,0,0,.753-.753V30.028a4.143,4.143,0,0,0-3.45-4.078A4.143,4.143,0,0,0,49.19,22.5H39.028a4.143,4.143,0,0,0-4.078,3.45,4.143,4.143,0,0,0-3.45,4.078V46.965a.753.753,0,0,0,1.506,0V40.943H55.213v6.022A.752.752,0,0,0,55.966,47.718Zm-4.14-20.325v1.882H36.393V27.393Zm-15.72,3.387H52.113l2.635,5.269H33.471Zm19.107-.753v3.586L53.331,29.85V27.516A2.631,2.631,0,0,1,55.213,30.028ZM39.028,24.006H49.19A2.631,2.631,0,0,1,51.7,25.887H36.516A2.631,2.631,0,0,1,39.028,24.006Zm-6.022,6.022a2.631,2.631,0,0,1,1.882-2.512V29.85l-1.882,3.764Zm0,9.41V37.555H55.213v1.882Z" transform="translate(-7.787 -5.563)"/></g></svg>